# xmcd
#
# Track frame offsets: 
#        150
#        11105
#        21767
#        35110
#        46082
#        56220
#        70215
#        80460
#        92850
#        103877
#        116310
#        126085
#        137402
#        148690
#        158945
#        169792
#        181150
#        190807
#        202827
#        215267
#
# Disc length: 3027 seconds
#
# Revision: 3
# Processed by: cddbd v1.5.1PL0 Copyright (c) Steve Scherf et al.
# Submitted via: ExactAudioCopy v0.95a5
#
DISCID=170bd114
DTITLE=Hank Thompson - Capitol Collector's Series
DYEAR=1989
DGENRE=Country
TTITLE0=Humpty Dumpty Heart
TTITLE1=Whoa, Sailor
TTITLE2=The Wild Side Of Life
TTITLE3=Waiting In The Lobby Of Your Heart
TTITLE4=Rub-A-Dub-Dub
TTITLE5=Yesterday's Girl
TTITLE6=Wake Up, Irene
TTITLE7=Breakin' The Rules
TTITLE8=Honky Tonk Girl
TTITLE9=We've Gone Too Far
TTITLE10=The New Green Light
TTITLE11=Breakin' In Another Heart
TTITLE12=Don't Take It Out On Me
TTITLE13=The Blackboard Of My Heart
TTITLE14=Rockin' In The Congo
TTITLE15=Squaws Along The Yukon
TTITLE16=A Six Pack To Go
TTITLE17=She's Just A Whole Lot Like You
TTITLE18=Oklahoma Hills
TTITLE19=Hangover Tavern
EXTD=YEAR: 1989
EXTT0=
EXTT1=
EXTT2=
EXTT3=
EXTT4=
EXTT5=
EXTT6=
EXTT7=
EXTT8=
EXTT9=
EXTT10=
EXTT11=
EXTT12=
EXTT13=
EXTT14=
EXTT15=
EXTT16=
EXTT17=
EXTT18=
EXTT19=
PLAYORDER=
